<svg width="425" height="280" viewBox="0 0 425 280" fill="none" xmlns="http://www.w3.org/2000/svg">
<g clip-path="url(#clip0_2294_175)">
<rect width="425" height="280" fill="white"/>
<rect width="648" height="427" fill="#282932"/>
<path d="M211.066 171.592C209.043 171.592 207.218 171.271 205.59 170.63C203.962 169.964 202.605 169.002 201.52 167.744L206.219 162.194C206.909 163.033 207.588 163.674 208.254 164.118C208.92 164.537 209.61 164.747 210.326 164.747C212.2 164.747 213.138 163.674 213.138 161.528V151.686H204.332V145.1H221.759V161.01C221.759 164.562 220.846 167.214 219.021 168.965C217.195 170.716 214.544 171.592 211.066 171.592ZM237.751 171V167.411L237.159 166.449V159.641C237.159 158.654 236.85 157.902 236.234 157.384C235.642 156.866 234.667 156.607 233.311 156.607C232.398 156.607 231.473 156.755 230.536 157.051C229.598 157.322 228.797 157.705 228.131 158.198L225.467 152.685C226.651 151.945 228.069 151.378 229.722 150.983C231.374 150.588 232.99 150.391 234.569 150.391C238.047 150.391 240.735 151.168 242.635 152.722C244.559 154.276 245.521 156.743 245.521 160.122V171H237.751ZM232.016 171.37C230.363 171.37 228.982 171.086 227.872 170.519C226.762 169.952 225.923 169.199 225.356 168.262C224.788 167.3 224.505 166.239 224.505 165.08C224.505 163.773 224.838 162.663 225.504 161.75C226.17 160.837 227.181 160.147 228.538 159.678C229.919 159.209 231.658 158.975 233.755 158.975H237.973V163.008H235.087C234.199 163.008 233.545 163.156 233.126 163.452C232.731 163.723 232.534 164.143 232.534 164.71C232.534 165.179 232.706 165.573 233.052 165.894C233.422 166.19 233.915 166.338 234.532 166.338C235.099 166.338 235.617 166.19 236.086 165.894C236.579 165.573 236.937 165.08 237.159 164.414L238.232 166.893C237.911 168.398 237.233 169.52 236.197 170.26C235.161 171 233.767 171.37 232.016 171.37ZM254.508 171L246.368 150.761H254.952L261.131 167.189H256.802L263.388 150.761H271.306L263.166 171H254.508ZM284.109 171V167.411L283.517 166.449V159.641C283.517 158.654 283.209 157.902 282.592 157.384C282 156.866 281.026 156.607 279.669 156.607C278.757 156.607 277.832 156.755 276.894 157.051C275.957 157.322 275.155 157.705 274.489 158.198L271.825 152.685C273.009 151.945 274.428 151.378 276.08 150.983C277.733 150.588 279.349 150.391 280.927 150.391C284.405 150.391 287.094 151.168 288.993 152.722C290.917 154.276 291.879 156.743 291.879 160.122V171H284.109ZM278.374 171.37C276.722 171.37 275.34 171.086 274.23 170.519C273.12 169.952 272.282 169.199 271.714 168.262C271.147 167.3 270.863 166.239 270.863 165.08C270.863 163.773 271.196 162.663 271.862 161.75C272.528 160.837 273.54 160.147 274.896 159.678C276.278 159.209 278.017 158.975 280.113 158.975H284.331V163.008H281.445C280.557 163.008 279.904 163.156 279.484 163.452C279.09 163.723 278.892 164.143 278.892 164.71C278.892 165.179 279.065 165.573 279.41 165.894C279.78 166.19 280.274 166.338 280.89 166.338C281.458 166.338 281.976 166.19 282.444 165.894C282.938 165.573 283.295 165.08 283.517 164.414L284.59 166.893C284.27 168.398 283.591 169.52 282.555 170.26C281.519 171 280.126 171.37 278.374 171.37ZM305.409 171.592C303.238 171.592 301.142 171.345 299.119 170.852C297.096 170.359 295.431 169.717 294.124 168.928L296.936 162.564C298.169 163.279 299.538 163.859 301.043 164.303C302.572 164.722 304.052 164.932 305.483 164.932C306.322 164.932 306.975 164.883 307.444 164.784C307.937 164.661 308.295 164.5 308.517 164.303C308.739 164.081 308.85 163.822 308.85 163.526C308.85 163.057 308.591 162.687 308.073 162.416C307.555 162.145 306.864 161.923 306.001 161.75C305.162 161.553 304.237 161.355 303.226 161.158C302.215 160.936 301.191 160.652 300.155 160.307C299.144 159.962 298.206 159.505 297.343 158.938C296.504 158.371 295.826 157.631 295.308 156.718C294.79 155.781 294.531 154.621 294.531 153.24C294.531 151.637 294.975 150.181 295.863 148.874C296.776 147.542 298.12 146.481 299.896 145.692C301.697 144.903 303.929 144.508 306.593 144.508C308.344 144.508 310.071 144.693 311.773 145.063C313.475 145.433 315.004 146 316.361 146.765L313.734 153.092C312.451 152.451 311.206 151.97 309.997 151.649C308.813 151.328 307.654 151.168 306.519 151.168C305.68 151.168 305.014 151.242 304.521 151.39C304.028 151.538 303.67 151.735 303.448 151.982C303.251 152.229 303.152 152.5 303.152 152.796C303.152 153.24 303.411 153.598 303.929 153.869C304.447 154.116 305.125 154.325 305.964 154.498C306.827 154.671 307.765 154.856 308.776 155.053C309.812 155.25 310.836 155.522 311.847 155.867C312.858 156.212 313.783 156.669 314.622 157.236C315.485 157.803 316.176 158.543 316.694 159.456C317.212 160.369 317.471 161.503 317.471 162.86C317.471 164.439 317.015 165.894 316.102 167.226C315.214 168.533 313.882 169.594 312.106 170.408C310.33 171.197 308.098 171.592 305.409 171.592ZM330.688 171.37C328.37 171.37 326.31 170.926 324.509 170.038C322.709 169.15 321.29 167.917 320.254 166.338C319.243 164.735 318.737 162.909 318.737 160.862C318.737 158.815 319.243 157.002 320.254 155.423C321.29 153.844 322.709 152.611 324.509 151.723C326.31 150.835 328.37 150.391 330.688 150.391C333.155 150.391 335.264 150.921 337.015 151.982C338.767 153.043 339.975 154.51 340.641 156.385L334.166 159.567C333.747 158.63 333.229 157.951 332.612 157.532C332.02 157.113 331.367 156.903 330.651 156.903C330.035 156.903 329.455 157.051 328.912 157.347C328.394 157.643 327.975 158.087 327.654 158.679C327.358 159.246 327.21 159.974 327.21 160.862C327.21 161.75 327.358 162.49 327.654 163.082C327.975 163.674 328.394 164.118 328.912 164.414C329.455 164.71 330.035 164.858 330.651 164.858C331.367 164.858 332.02 164.648 332.612 164.229C333.229 163.81 333.747 163.131 334.166 162.194L340.641 165.376C339.975 167.251 338.767 168.718 337.015 169.779C335.264 170.84 333.155 171.37 330.688 171.37ZM342.574 171V150.761H350.529V156.866L349.234 155.127C349.851 153.548 350.837 152.364 352.194 151.575C353.551 150.786 355.179 150.391 357.078 150.391V157.791C356.708 157.742 356.375 157.705 356.079 157.68C355.808 157.655 355.524 157.643 355.228 157.643C353.97 157.643 352.934 157.976 352.12 158.642C351.331 159.283 350.936 160.406 350.936 162.009V171H342.574ZM359.448 171V150.761H367.81V171H359.448ZM363.629 149.133C362.1 149.133 360.879 148.726 359.966 147.912C359.053 147.098 358.597 146.087 358.597 144.878C358.597 143.669 359.053 142.658 359.966 141.844C360.879 141.03 362.1 140.623 363.629 140.623C365.158 140.623 366.379 141.005 367.292 141.77C368.205 142.535 368.661 143.521 368.661 144.73C368.661 146.013 368.205 147.073 367.292 147.912C366.379 148.726 365.158 149.133 363.629 149.133ZM385.022 171.37C383.27 171.37 381.815 171 380.656 170.26C379.521 169.495 378.682 168.348 378.14 166.819C377.597 165.265 377.326 163.292 377.326 160.899C377.326 158.457 377.572 156.471 378.066 154.942C378.584 153.388 379.41 152.241 380.545 151.501C381.679 150.761 383.172 150.391 385.022 150.391C386.798 150.391 388.426 150.823 389.906 151.686C391.386 152.525 392.57 153.733 393.458 155.312C394.346 156.866 394.79 158.728 394.79 160.899C394.79 163.07 394.346 164.944 393.458 166.523C392.57 168.077 391.386 169.273 389.906 170.112C388.426 170.951 386.798 171.37 385.022 171.37ZM371.517 178.178V150.761H379.472V153.499L379.509 160.899L379.879 168.299V178.178H371.517ZM383.024 164.858C383.64 164.858 384.195 164.71 384.689 164.414C385.182 164.118 385.577 163.674 385.873 163.082C386.169 162.49 386.317 161.762 386.317 160.899C386.317 160.011 386.169 159.271 385.873 158.679C385.577 158.087 385.182 157.643 384.689 157.347C384.195 157.051 383.64 156.903 383.024 156.903C382.407 156.903 381.852 157.051 381.359 157.347C380.865 157.643 380.471 158.087 380.175 158.679C379.879 159.271 379.731 160.011 379.731 160.899C379.731 161.762 379.879 162.49 380.175 163.082C380.471 163.674 380.865 164.118 381.359 164.414C381.852 164.71 382.407 164.858 383.024 164.858ZM407.192 171.37C404.404 171.37 402.234 170.704 400.68 169.372C399.126 168.015 398.349 165.943 398.349 163.156V146.21H406.711V163.082C406.711 163.699 406.871 164.18 407.192 164.525C407.537 164.87 407.956 165.043 408.45 165.043C409.165 165.043 409.794 164.858 410.337 164.488L412.335 170.297C411.693 170.667 410.916 170.938 410.004 171.111C409.116 171.284 408.178 171.37 407.192 171.37ZM395.574 157.976V151.871H410.855V157.976H395.574Z" fill="#E78438"/>
<path d="M246.872 128L236.432 108.32L247.712 101.72L262.832 128H246.872ZM220.712 128V86H234.872V128H220.712ZM230.792 112.82V101.66H246.692V112.82H230.792ZM249.092 108.5L236.072 107.18L248.132 86H262.892L249.092 108.5ZM270.31 117.02C272.79 117.66 274.73 117.88 276.13 117.68C277.53 117.44 278.77 116.58 279.85 115.1L281.89 112.22L283.09 110.9L295.27 86H308.95L292.09 117.62C290.25 121.06 288.03 123.74 285.43 125.66C282.87 127.54 280.03 128.62 276.91 128.9C273.79 129.18 270.49 128.62 267.01 127.22L270.31 117.02ZM282.91 122L263.35 86H278.29L290.59 112.22L282.91 122ZM311.892 128V86H332.112C336.032 86 339.412 86.64 342.252 87.92C345.132 89.2 347.352 91.04 348.912 93.44C350.472 95.8 351.252 98.6 351.252 101.84C351.252 105.08 350.472 107.88 348.912 110.24C347.352 112.6 345.132 114.44 342.252 115.76C339.412 117.04 336.032 117.68 332.112 117.68H319.752L326.052 111.62V128H311.892ZM326.052 113.18L319.752 106.76H331.212C333.172 106.76 334.612 106.32 335.532 105.44C336.492 104.56 336.972 103.36 336.972 101.84C336.972 100.32 336.492 99.12 335.532 98.24C334.612 97.36 333.172 96.92 331.212 96.92H319.752L326.052 90.5V113.18ZM377.25 128.96C373.89 128.96 370.77 128.44 367.89 127.4C365.05 126.32 362.57 124.8 360.45 122.84C358.37 120.88 356.75 118.56 355.59 115.88C354.43 113.2 353.85 110.24 353.85 107C353.85 103.76 354.43 100.8 355.59 98.12C356.75 95.44 358.37 93.12 360.45 91.16C362.57 89.2 365.05 87.7 367.89 86.66C370.77 85.58 373.89 85.04 377.25 85.04C381.37 85.04 385.01 85.76 388.17 87.2C391.37 88.64 394.01 90.72 396.09 93.44L387.15 101.42C385.91 99.86 384.53 98.66 383.01 97.82C381.53 96.94 379.85 96.5 377.97 96.5C376.49 96.5 375.15 96.74 373.95 97.22C372.75 97.7 371.71 98.4 370.83 99.32C369.99 100.24 369.33 101.36 368.85 102.68C368.37 103.96 368.13 105.4 368.13 107C368.13 108.6 368.37 110.06 368.85 111.38C369.33 112.66 369.99 113.76 370.83 114.68C371.71 115.6 372.75 116.3 373.95 116.78C375.15 117.26 376.49 117.5 377.97 117.5C379.85 117.5 381.53 117.08 383.01 116.24C384.53 115.36 385.91 114.14 387.15 112.58L396.09 120.56C394.01 123.24 391.37 125.32 388.17 126.8C385.01 128.24 381.37 128.96 377.25 128.96Z" fill="white"/>
<path d="M216.525 207.462V185.934H224.414V189.844H221.723V203.552H224.414V207.462H216.525ZM228.833 207.692C228.143 207.692 227.438 207.585 226.717 207.37C226.012 207.171 225.445 206.902 225.015 206.565L226.74 203C227.001 203.199 227.292 203.36 227.614 203.483C227.952 203.606 228.274 203.667 228.58 203.667C229.04 203.667 229.393 203.567 229.638 203.368C229.884 203.184 230.083 202.9 230.236 202.517L230.765 201.183L231.133 200.677L235.158 190.419H240.08L234.905 203.253C234.445 204.403 233.909 205.3 233.295 205.944C232.697 206.588 232.023 207.04 231.271 207.301C230.535 207.562 229.723 207.692 228.833 207.692ZM230.052 203.575L224.578 190.419H229.914L233.686 200.217L230.052 203.575ZM249.924 203L246.474 197.227L250.66 194.789L256.042 203H249.924ZM241.23 203V190.419H246.428V203H241.23ZM244.91 198.814V194.835H249.602V198.814H244.91ZM251.189 197.273L246.313 196.813L250.315 190.419H255.789L251.189 197.273ZM265.594 203.23C264.506 203.23 263.601 203 262.88 202.54C262.175 202.065 261.654 201.352 261.316 200.401C260.979 199.435 260.81 198.208 260.81 196.721C260.81 195.203 260.964 193.969 261.27 193.018C261.592 192.052 262.106 191.339 262.811 190.879C263.517 190.419 264.444 190.189 265.594 190.189C266.698 190.189 267.71 190.457 268.63 190.994C269.55 191.515 270.286 192.267 270.838 193.248C271.39 194.214 271.666 195.372 271.666 196.721C271.666 198.07 271.39 199.236 270.838 200.217C270.286 201.183 269.55 201.927 268.63 202.448C267.71 202.969 266.698 203.23 265.594 203.23ZM257.199 207.462V190.419H262.144V192.121L262.167 196.721L262.397 201.321V207.462H257.199ZM264.352 199.182C264.736 199.182 265.081 199.09 265.387 198.906C265.694 198.722 265.939 198.446 266.123 198.078C266.307 197.71 266.399 197.258 266.399 196.721C266.399 196.169 266.307 195.709 266.123 195.341C265.939 194.973 265.694 194.697 265.387 194.513C265.081 194.329 264.736 194.237 264.352 194.237C263.969 194.237 263.624 194.329 263.317 194.513C263.011 194.697 262.765 194.973 262.581 195.341C262.397 195.709 262.305 196.169 262.305 196.721C262.305 197.258 262.397 197.71 262.581 198.078C262.765 198.446 263.011 198.722 263.317 198.906C263.624 199.09 263.969 199.182 264.352 199.182ZM280.371 203V200.769L280.003 200.171V195.939C280.003 195.326 279.812 194.858 279.428 194.536C279.06 194.214 278.455 194.053 277.611 194.053C277.044 194.053 276.469 194.145 275.886 194.329C275.304 194.498 274.805 194.735 274.391 195.042L272.735 191.615C273.471 191.155 274.353 190.802 275.38 190.557C276.408 190.312 277.412 190.189 278.393 190.189C280.555 190.189 282.227 190.672 283.407 191.638C284.603 192.604 285.201 194.137 285.201 196.238V203H280.371ZM276.806 203.23C275.779 203.23 274.92 203.054 274.23 202.701C273.54 202.348 273.019 201.881 272.666 201.298C272.314 200.7 272.137 200.041 272.137 199.32C272.137 198.507 272.344 197.817 272.758 197.25C273.172 196.683 273.801 196.253 274.644 195.962C275.503 195.671 276.584 195.525 277.887 195.525H280.509V198.032H278.715C278.163 198.032 277.757 198.124 277.496 198.308C277.251 198.477 277.128 198.737 277.128 199.09C277.128 199.381 277.236 199.627 277.45 199.826C277.68 200.01 277.987 200.102 278.37 200.102C278.723 200.102 279.045 200.01 279.336 199.826C279.643 199.627 279.865 199.32 280.003 198.906L280.67 200.447C280.471 201.382 280.049 202.08 279.405 202.54C278.761 203 277.895 203.23 276.806 203.23ZM287.251 203V190.419H292.449V203H287.251ZM292.012 189.223C291.475 189.223 291.023 189.039 290.655 188.671C290.287 188.303 290.103 187.812 290.103 187.199C290.103 186.586 290.287 186.095 290.655 185.727C291.023 185.344 291.475 185.152 292.012 185.152C292.548 185.152 292.993 185.344 293.346 185.727C293.714 186.095 293.898 186.586 293.898 187.199C293.898 187.812 293.714 188.303 293.346 188.671C292.993 189.039 292.548 189.223 292.012 189.223ZM287.711 189.223C287.174 189.223 286.722 189.039 286.354 188.671C285.986 188.303 285.802 187.812 285.802 187.199C285.802 186.586 285.986 186.095 286.354 185.727C286.722 185.344 287.174 185.152 287.711 185.152C288.247 185.152 288.692 185.344 289.045 185.727C289.413 186.095 289.597 186.586 289.597 187.199C289.597 187.812 289.413 188.303 289.045 188.671C288.692 189.039 288.247 189.223 287.711 189.223ZM294.822 203V190.419H299.997V194.835H303.539V190.419H308.714V203H303.539V198.906H299.997V203H294.822ZM317.752 203.23C316.31 203.23 315.03 202.954 313.911 202.402C312.791 201.85 311.91 201.083 311.266 200.102C310.637 199.105 310.323 197.971 310.323 196.698C310.323 195.425 310.637 194.298 311.266 193.317C311.91 192.336 312.791 191.569 313.911 191.017C315.03 190.465 316.31 190.189 317.752 190.189C319.285 190.189 320.596 190.519 321.685 191.178C322.773 191.837 323.525 192.75 323.939 193.915L319.914 195.893C319.653 195.31 319.331 194.889 318.948 194.628C318.58 194.367 318.173 194.237 317.729 194.237C317.345 194.237 316.985 194.329 316.648 194.513C316.326 194.697 316.065 194.973 315.866 195.341C315.682 195.694 315.59 196.146 315.59 196.698C315.59 197.25 315.682 197.71 315.866 198.078C316.065 198.446 316.326 198.722 316.648 198.906C316.985 199.09 317.345 199.182 317.729 199.182C318.173 199.182 318.58 199.052 318.948 198.791C319.331 198.53 319.653 198.109 319.914 197.526L323.939 199.504C323.525 200.669 322.773 201.582 321.685 202.241C320.596 202.9 319.285 203.23 317.752 203.23ZM333.326 194.214C335.013 194.214 336.309 194.582 337.213 195.318C338.118 196.054 338.57 197.097 338.57 198.446C338.57 199.857 338.041 200.968 336.983 201.781C335.941 202.594 334.507 203 332.682 203H325.368V190.419H330.543V194.214H333.326ZM332.153 199.504C332.506 199.504 332.782 199.412 332.981 199.228C333.181 199.044 333.28 198.753 333.28 198.354C333.28 197.955 333.181 197.672 332.981 197.503C332.782 197.334 332.506 197.25 332.153 197.25H330.543V199.504H332.153ZM348.752 203L345.302 197.227L349.488 194.789L354.87 203H348.752ZM340.058 203V190.419H345.256V203H340.058ZM343.738 198.814V194.835H348.43V198.814H343.738ZM350.017 197.273L345.141 196.813L349.143 190.419H354.617L350.017 197.273ZM362.177 203.23C360.751 203.23 359.486 202.954 358.382 202.402C357.293 201.835 356.434 201.06 355.806 200.079C355.177 199.098 354.863 197.971 354.863 196.698C354.863 195.425 355.177 194.298 355.806 193.317C356.434 192.336 357.293 191.569 358.382 191.017C359.486 190.465 360.751 190.189 362.177 190.189C363.603 190.189 364.868 190.465 365.972 191.017C367.076 191.569 367.934 192.336 368.548 193.317C369.176 194.298 369.491 195.425 369.491 196.698C369.491 197.971 369.176 199.098 368.548 200.079C367.934 201.06 367.076 201.835 365.972 202.402C364.868 202.954 363.603 203.23 362.177 203.23ZM362.177 199.182C362.56 199.182 362.905 199.09 363.212 198.906C363.518 198.722 363.764 198.446 363.948 198.078C364.132 197.695 364.224 197.235 364.224 196.698C364.224 196.146 364.132 195.694 363.948 195.341C363.764 194.973 363.518 194.697 363.212 194.513C362.905 194.329 362.56 194.237 362.177 194.237C361.793 194.237 361.448 194.329 361.142 194.513C360.835 194.697 360.59 194.973 360.406 195.341C360.222 195.694 360.13 196.146 360.13 196.698C360.13 197.235 360.222 197.695 360.406 198.078C360.59 198.446 360.835 198.722 361.142 198.906C361.448 199.09 361.793 199.182 362.177 199.182ZM371.099 203V190.419H376.274V194.467H379.862V198.768H376.274V203H371.099ZM383.887 203.23C382.522 203.23 381.303 202.954 380.23 202.402C379.172 201.835 378.336 201.06 377.723 200.079C377.125 199.098 376.826 197.971 376.826 196.698C376.826 195.425 377.125 194.298 377.723 193.317C378.336 192.336 379.172 191.569 380.23 191.017C381.303 190.465 382.522 190.189 383.887 190.189C385.267 190.189 386.486 190.465 387.544 191.017C388.602 191.569 389.43 192.336 390.028 193.317C390.641 194.298 390.948 195.425 390.948 196.698C390.948 197.971 390.641 199.098 390.028 200.079C389.43 201.06 388.602 201.835 387.544 202.402C386.486 202.954 385.267 203.23 383.887 203.23ZM383.887 199.182C384.255 199.182 384.585 199.09 384.876 198.906C385.167 198.722 385.397 198.446 385.566 198.078C385.735 197.695 385.819 197.235 385.819 196.698C385.819 196.146 385.735 195.694 385.566 195.341C385.397 194.973 385.167 194.697 384.876 194.513C384.585 194.329 384.255 194.237 383.887 194.237C383.534 194.237 383.205 194.329 382.898 194.513C382.607 194.697 382.377 194.973 382.208 195.341C382.039 195.694 381.955 196.146 381.955 196.698C381.955 197.235 382.039 197.695 382.208 198.078C382.377 198.446 382.607 198.722 382.898 198.906C383.205 199.09 383.534 199.182 383.887 199.182ZM399.472 207.462H391.583V203.552H394.274V189.844H391.583V185.934H399.472V207.462Z" fill="#5CC2E4"/>
<path d="M168.516 41.8438H52.1719C44.6125 41.8438 38.4844 47.9719 38.4844 55.5312V219.781C38.4844 227.341 44.6125 233.469 52.1719 233.469H168.516C176.075 233.469 182.203 227.341 182.203 219.781V55.5312C182.203 47.9719 176.075 41.8438 168.516 41.8438Z" fill="#E3E8F6"/>
<path d="M38.4844 219.781C38.4844 223.411 39.9264 226.893 42.4934 229.46C45.0603 232.027 48.5417 233.469 52.1719 233.469H168.516C172.146 233.469 175.627 232.027 178.194 229.46C180.761 226.893 182.203 223.411 182.203 219.781V158.188H38.4844V219.781Z" fill="#E78438"/>
<path d="M154.828 55.5312H38.4844C30.925 55.5312 24.7969 61.6594 24.7969 69.2188V233.469C24.7969 241.028 30.925 247.156 38.4844 247.156H154.828C162.388 247.156 168.516 241.028 168.516 233.469V69.2188C168.516 61.6594 162.388 55.5312 154.828 55.5312Z" fill="#E3E8F6"/>
<path d="M24.7969 233.469C24.7969 237.099 26.2389 240.58 28.8059 243.147C31.3728 245.714 34.8542 247.156 38.4844 247.156H154.828C158.458 247.156 161.94 245.714 164.507 243.147C167.074 240.58 168.516 237.099 168.516 233.469V171.875H24.7969V233.469Z" fill="#E78438"/>
<path d="M35.0625 233.469C35.0625 237.099 36.5046 240.58 39.0715 243.147C41.6384 245.714 45.1198 247.156 48.75 247.156H154.828C158.458 247.156 161.94 245.714 164.507 243.147C167.074 240.58 168.516 237.099 168.516 233.469V171.875H35.0625V233.469Z" fill="#EEAB46"/>
<path d="M154.828 55.5312H48.75C45.1198 55.5312 41.6384 56.9733 39.0715 59.5402C36.5046 62.1071 35.0625 65.5886 35.0625 69.2188V171.875H168.516V69.2188C168.516 65.5886 167.074 62.1071 164.507 59.5402C161.94 56.9733 158.458 55.5312 154.828 55.5312Z" fill="#F8F7FE"/>
<path d="M69.2812 120.547C73.0609 120.547 76.125 117.483 76.125 113.703C76.125 109.923 73.0609 106.859 69.2812 106.859C65.5016 106.859 62.4375 109.923 62.4375 113.703C62.4375 117.483 65.5016 120.547 69.2812 120.547Z" fill="#E78438"/>
<path d="M72.7031 119.598C74.593 119.598 76.125 116.959 76.125 113.703C76.125 110.448 74.593 107.809 72.7031 107.809C70.8133 107.809 69.2812 110.448 69.2812 113.703C69.2812 116.959 70.8133 119.598 72.7031 119.598Z" fill="#EEAB46"/>
<path d="M96.6562 120.547C100.436 120.547 103.5 117.483 103.5 113.703C103.5 109.923 100.436 106.859 96.6562 106.859C92.8766 106.859 89.8125 109.923 89.8125 113.703C89.8125 117.483 92.8766 120.547 96.6562 120.547Z" fill="#E78438"/>
<path d="M100.078 119.598C101.968 119.598 103.5 116.959 103.5 113.703C103.5 110.448 101.968 107.809 100.078 107.809C98.1883 107.809 96.6562 110.448 96.6562 113.703C96.6562 116.959 98.1883 119.598 100.078 119.598Z" fill="#EEAB46"/>
<path d="M124.031 120.547C127.811 120.547 130.875 117.483 130.875 113.703C130.875 109.923 127.811 106.859 124.031 106.859C120.252 106.859 117.188 109.923 117.188 113.703C117.188 117.483 120.252 120.547 124.031 120.547Z" fill="#E78438"/>
<path d="M127.453 119.598C129.343 119.598 130.875 116.959 130.875 113.703C130.875 110.448 129.343 107.809 127.453 107.809C125.563 107.809 124.031 110.448 124.031 113.703C124.031 116.959 125.563 119.598 127.453 119.598Z" fill="#EEAB46"/>
<path d="M93.2344 185.562H72.7031C71.7956 185.562 70.9252 185.923 70.2835 186.565C69.6418 187.206 69.2812 188.077 69.2812 188.984C69.2812 189.892 69.6418 190.762 70.2835 191.404C70.9252 192.046 71.7956 192.406 72.7031 192.406H79.5469V219.781C79.5469 221.596 78.8258 223.337 77.5424 224.621C76.2589 225.904 74.5182 226.625 72.7031 226.625C70.888 226.625 69.1473 225.904 67.8639 224.621C66.5804 223.337 65.8594 221.596 65.8594 219.781V216.359C65.8594 215.452 65.4989 214.581 64.8571 213.94C64.2154 213.298 63.345 212.938 62.4375 212.938C61.53 212.938 60.6596 213.298 60.0179 213.94C59.3761 214.581 59.0156 215.452 59.0156 216.359V219.781C59.0156 223.411 60.4577 226.893 63.0246 229.46C65.5915 232.027 69.073 233.469 72.7031 233.469C76.3333 233.469 79.8147 232.027 82.3816 229.46C84.9486 226.893 86.3906 223.411 86.3906 219.781V192.406H93.2344C94.1419 192.406 95.0123 192.046 95.654 191.404C96.2957 190.762 96.6562 189.892 96.6562 188.984C96.6562 188.077 96.2957 187.206 95.654 186.565C95.0123 185.923 94.1419 185.562 93.2344 185.562Z" fill="black"/>
<path d="M113.766 192.406C115.58 192.408 117.32 193.13 118.603 194.413C119.886 195.696 120.607 197.436 120.609 199.25C120.609 200.158 120.97 201.028 121.612 201.67C122.253 202.311 123.124 202.672 124.031 202.672C124.939 202.672 125.809 202.311 126.451 201.67C127.093 201.028 127.453 200.158 127.453 199.25C127.453 196.543 126.65 193.897 125.146 191.646C123.642 189.395 121.505 187.64 119.004 186.604C116.503 185.568 113.75 185.297 111.095 185.826C108.44 186.354 106.001 187.657 104.087 189.571C102.173 191.486 100.869 193.925 100.341 196.58C99.813 199.235 100.084 201.987 101.12 204.488C102.156 206.989 103.91 209.127 106.161 210.631C108.412 212.135 111.059 212.938 113.766 212.938C115.119 212.938 116.442 213.339 117.568 214.091C118.693 214.843 119.57 215.912 120.088 217.162C120.606 218.413 120.742 219.789 120.478 221.116C120.214 222.444 119.562 223.663 118.605 224.621C117.648 225.578 116.428 226.229 115.101 226.494C113.773 226.758 112.397 226.622 111.147 226.104C109.896 225.586 108.827 224.709 108.075 223.583C107.323 222.458 106.922 221.135 106.922 219.781C106.922 218.874 106.561 218.003 105.92 217.362C105.278 216.72 104.408 216.359 103.5 216.359C102.592 216.359 101.722 216.72 101.08 217.362C100.439 218.003 100.078 218.874 100.078 219.781C100.078 222.488 100.881 225.135 102.385 227.386C103.889 229.637 106.027 231.391 108.528 232.427C111.029 233.463 113.781 233.734 116.436 233.206C119.091 232.678 121.53 231.374 123.444 229.46C125.358 227.546 126.662 225.107 127.19 222.452C127.718 219.796 127.447 217.044 126.411 214.543C125.375 212.042 123.621 209.905 121.37 208.401C119.119 206.897 116.473 206.094 113.766 206.094C111.951 206.094 110.21 205.373 108.926 204.089C107.643 202.806 106.922 201.065 106.922 199.25C106.922 197.435 107.643 195.694 108.926 194.411C110.21 193.127 111.951 192.406 113.766 192.406Z" fill="black"/>
<path d="M48.7498 134.234C48.7554 139.677 50.9199 144.896 54.7683 148.745C58.6167 152.594 63.8347 154.759 69.2776 154.766C70.1851 154.766 71.0555 154.405 71.6972 153.763C72.3389 153.122 72.6995 152.251 72.6995 151.344C72.6995 150.436 72.3389 149.566 71.6972 148.924C71.0555 148.282 70.1851 147.922 69.2776 147.922C65.6491 147.918 62.1705 146.474 59.605 143.908C57.0396 141.342 55.5969 137.863 55.5935 134.234V123.969C55.5933 123.061 55.2327 122.191 54.5909 121.549L46.7445 113.703L54.5909 105.857C55.2327 105.215 55.5933 104.345 55.5935 103.438V93.1719C55.5969 89.5434 57.0396 86.0644 59.605 83.4983C62.1705 80.9322 65.6491 79.4887 69.2776 79.4844C70.1851 79.4844 71.0555 79.1239 71.6972 78.4821C72.3389 77.8404 72.6995 76.97 72.6995 76.0625C72.6995 75.155 72.3389 74.2846 71.6972 73.6429C71.0555 73.0011 70.1851 72.6406 69.2776 72.6406C63.8347 72.6472 58.6167 74.8125 54.7683 78.6615C50.9199 82.5106 48.7554 87.729 48.7498 93.1719V102.023L39.4867 111.286C38.8452 111.927 38.4849 112.797 38.4849 113.705C38.4849 114.612 38.8452 115.482 39.4867 116.124L48.7498 125.385V134.234Z" fill="black"/>
<path d="M124.035 79.4844C127.663 79.4887 131.142 80.9322 133.707 83.4983C136.273 86.0644 137.715 89.5434 137.719 93.1719V103.438C137.719 104.345 138.08 105.215 138.721 105.857L146.568 113.703L138.721 121.549C138.08 122.191 137.719 123.061 137.719 123.969V134.234C137.715 137.863 136.273 141.342 133.707 143.908C131.142 146.474 127.663 147.918 124.035 147.922C123.127 147.922 122.257 148.282 121.615 148.924C120.973 149.566 120.613 150.436 120.613 151.344C120.613 152.251 120.973 153.122 121.615 153.763C122.257 154.405 123.127 154.766 124.035 154.766C129.478 154.759 134.696 152.594 138.544 148.745C142.392 144.896 144.557 139.677 144.562 134.234V125.385L153.826 116.122C154.467 115.481 154.827 114.61 154.827 113.703C154.827 112.796 154.467 111.926 153.826 111.284L144.562 102.021V93.1719C144.557 87.729 142.392 82.5106 138.544 78.6615C134.696 74.8125 129.478 72.6472 124.035 72.6406C123.127 72.6406 122.257 73.0011 121.615 73.6429C120.973 74.2846 120.613 75.155 120.613 76.0625C120.613 76.97 120.973 77.8404 121.615 78.4821C122.257 79.1239 123.127 79.4844 124.035 79.4844Z" fill="black"/>
<path d="M59.0156 113.703C59.0156 115.733 59.6177 117.718 60.7457 119.406C61.8737 121.095 63.477 122.41 65.3528 123.187C67.2286 123.964 69.2926 124.168 71.284 123.771C73.2753 123.375 75.1045 122.398 76.5401 120.962C77.9758 119.526 78.9535 117.697 79.3496 115.706C79.7457 113.715 79.5424 111.65 78.7655 109.775C77.9885 107.899 76.6727 106.296 74.9845 105.168C73.2963 104.04 71.3116 103.438 69.2812 103.438C66.5596 103.441 63.9502 104.523 62.0257 106.448C60.1012 108.372 59.0187 110.981 59.0156 113.703ZM72.7031 113.703C72.7031 114.38 72.5024 115.041 72.1264 115.604C71.7504 116.167 71.216 116.606 70.5907 116.865C69.9655 117.124 69.2775 117.191 68.6137 117.059C67.9499 116.927 67.3402 116.601 66.8616 116.123C66.3831 115.644 66.0572 115.034 65.9251 114.371C65.7931 113.707 65.8609 113.019 66.1198 112.394C66.3788 111.768 66.8174 111.234 67.3802 110.858C67.9429 110.482 68.6045 110.281 69.2812 110.281C70.1885 110.282 71.0583 110.643 71.6999 111.284C72.3414 111.926 72.7022 112.796 72.7031 113.703Z" fill="black"/>
<path d="M96.6562 123.969C99.3789 123.969 101.99 122.887 103.915 120.962C105.84 119.037 106.922 116.426 106.922 113.703C106.922 110.981 105.84 108.369 103.915 106.444C101.99 104.519 99.3789 103.438 96.6562 103.438C95.7487 103.438 94.8783 103.798 94.2366 104.44C93.5949 105.081 93.2344 105.952 93.2344 106.859C93.2344 107.767 93.5949 108.637 94.2366 109.279C94.8783 109.921 95.7487 110.281 96.6562 110.281C97.333 110.281 97.9946 110.482 98.5573 110.858C99.1201 111.234 99.5587 111.768 99.8177 112.394C100.077 113.019 100.144 113.707 100.012 114.371C99.8803 115.034 99.5544 115.644 99.0759 116.123C98.5973 116.601 97.9876 116.927 97.3238 117.059C96.66 117.191 95.972 117.124 95.3468 116.865C94.7215 116.606 94.1871 116.167 93.8111 115.604C93.4351 115.041 93.2344 114.38 93.2344 113.703C93.2344 112.796 92.8739 111.925 92.2321 111.283C91.5904 110.642 90.72 110.281 89.8125 110.281C88.905 110.281 88.0346 110.642 87.3929 111.283C86.7511 111.925 86.3906 112.796 86.3906 113.703C86.3937 116.425 87.4762 119.034 89.4007 120.959C91.3252 122.883 93.9346 123.966 96.6562 123.969Z" fill="black"/>
<path d="M124.031 123.969C126.062 123.969 128.046 123.367 129.735 122.239C131.423 121.111 132.738 119.507 133.515 117.632C134.292 115.756 134.496 113.692 134.1 111.7C133.704 109.709 132.726 107.88 131.29 106.444C129.854 105.009 128.025 104.031 126.034 103.635C124.043 103.239 121.979 103.442 120.103 104.219C118.227 104.996 116.624 106.312 115.496 108C114.368 109.688 113.766 111.673 113.766 113.703C113.769 116.425 114.851 119.034 116.776 120.959C118.7 122.883 121.31 123.966 124.031 123.969ZM124.031 110.281C124.708 110.281 125.37 110.482 125.932 110.858C126.495 111.234 126.934 111.768 127.193 112.394C127.452 113.019 127.519 113.707 127.387 114.371C127.255 115.034 126.929 115.644 126.451 116.123C125.972 116.601 125.363 116.927 124.699 117.059C124.035 117.191 123.347 117.124 122.722 116.865C122.096 116.606 121.562 116.167 121.186 115.604C120.81 115.041 120.609 114.38 120.609 113.703C120.61 112.796 120.971 111.926 121.613 111.285C122.254 110.643 123.124 110.282 124.031 110.281Z" fill="black"/>
<path d="M168.516 38.4219H161.672C160.764 38.4219 159.894 38.7824 159.252 39.4241C158.611 40.0658 158.25 40.9362 158.25 41.8438C158.25 42.7513 158.611 43.6217 159.252 44.2634C159.894 44.9051 160.764 45.2656 161.672 45.2656H168.516C171.237 45.2687 173.847 46.3512 175.771 48.2757C177.696 50.2002 178.778 52.8096 178.781 55.5312V154.766H171.938V69.2188C171.932 64.6827 170.128 60.3339 166.92 57.1265C163.713 53.919 159.364 52.1147 154.828 52.1094H42.5367C43.2397 50.1135 44.5433 48.3841 46.2685 47.1588C47.9936 45.9334 50.0558 45.2721 52.1719 45.2656H147.984C148.892 45.2656 149.762 44.9051 150.404 44.2634C151.046 43.6217 151.406 42.7513 151.406 41.8438C151.406 40.9362 151.046 40.0658 150.404 39.4241C149.762 38.7824 148.892 38.4219 147.984 38.4219H52.1719C48.1787 38.4299 44.3139 39.8339 41.2468 42.3908C38.1796 44.9478 36.103 48.4968 35.3765 52.4233C31.4499 53.1498 27.9009 55.2264 25.344 58.2936C22.787 61.3608 21.383 65.2255 21.375 69.2188V233.469C21.3803 238.005 23.1846 242.354 26.3921 245.561C29.5996 248.769 33.9483 250.573 38.4844 250.578H154.828C158.821 250.57 162.686 249.166 165.753 246.609C168.82 244.052 170.897 240.503 171.624 236.577C175.55 235.85 179.099 233.774 181.656 230.706C184.213 227.639 185.617 223.774 185.625 219.781V55.5312C185.62 50.9952 183.815 46.6464 180.608 43.439C177.4 40.2315 173.052 38.4272 168.516 38.4219ZM165.094 168.453H48.75C47.8425 168.453 46.9721 168.814 46.3304 169.455C45.6886 170.097 45.3281 170.967 45.3281 171.875C45.3281 172.783 45.6886 173.653 46.3304 174.295C46.9721 174.936 47.8425 175.297 48.75 175.297H165.094V233.469C165.091 236.19 164.008 238.8 162.084 240.724C160.159 242.649 157.55 243.731 154.828 243.734H38.4844C35.7627 243.731 33.1534 242.649 31.2289 240.724C29.3043 238.8 28.2218 236.19 28.2188 233.469V175.297H35.0625C35.97 175.297 36.8404 174.936 37.4821 174.295C38.1239 173.653 38.4844 172.783 38.4844 171.875C38.4844 170.967 38.1239 170.097 37.4821 169.455C36.8404 168.814 35.97 168.453 35.0625 168.453H28.2188V69.2188C28.2218 66.4971 29.3043 63.8877 31.2289 61.9632C33.1534 60.0387 35.7627 58.9562 38.4844 58.9531H154.828C157.55 58.9562 160.159 60.0387 162.084 61.9632C164.008 63.8877 165.091 66.4971 165.094 69.2188V168.453ZM171.938 229.416V161.609H178.781V219.781C178.775 221.897 178.113 223.959 176.888 225.685C175.663 227.41 173.933 228.713 171.938 229.416Z" fill="black"/>
</g>
<defs>
<clipPath id="clip0_2294_175">
<rect width="425" height="280" fill="white"/>
</clipPath>
</defs>
</svg>
